<svg width="16" height="16" viewBox="0 0 16 16" fill="none" xmlns="http://www.w3.org/2000/svg">
<path d="M13.44 2.55996C13.2623 2.3822 13.0513 2.24119 12.819 2.14499C12.5868 2.04878 12.3379 1.99927 12.0865 1.99927C11.8351 1.99927 11.5862 2.04878 11.354 2.14499C11.1218 2.24119 10.9107 2.3822 10.733 2.55996L3.33801 9.95496C3.15722 10.1359 3.02097 10.3564 2.94001 10.599L2.02601 13.342C1.99681 13.43 1.99267 13.5244 2.01404 13.6146C2.03541 13.7049 2.08145 13.7874 2.14703 13.8529C2.2126 13.9185 2.29512 13.9646 2.38535 13.9859C2.47559 14.0073 2.56999 14.0032 2.65801 13.974L5.40101 13.06C5.64401 12.98 5.86401 12.843 6.04501 12.662L13.44 5.26796C13.6179 5.09021 13.7591 4.87914 13.8554 4.64681C13.9516 4.41448 14.0012 4.16546 14.0012 3.91396C14.0012 3.66247 13.9516 3.41344 13.8554 3.18112C13.7591 2.94879 13.6179 2.73772 13.44 2.55996V2.55996ZM11.44 3.26796C11.5245 3.1814 11.6253 3.11247 11.7366 3.06515C11.8479 3.01783 11.9675 2.99307 12.0884 2.99231C12.2093 2.99154 12.3292 3.01479 12.4411 3.06069C12.553 3.1066 12.6547 3.17426 12.7402 3.25974C12.8258 3.34523 12.8935 3.44684 12.9395 3.5587C12.9855 3.67055 13.0088 3.79042 13.0082 3.91136C13.0075 4.0323 12.9828 4.1519 12.9356 4.26324C12.8884 4.37458 12.8195 4.47543 12.733 4.55996L12 5.29396L10.707 4.00096L11.441 3.26796H11.44ZM10 4.70796L11.292 6.00096L5.33801 11.955C5.2669 12.0259 5.18029 12.0793 5.08501 12.111L3.29101 12.709L3.88901 10.916C3.9206 10.8203 3.97401 10.7334 4.04501 10.662L10 4.70796Z" fill="black"/>
</svg>
